<?xml version="1.0" encoding="utf-8"?>
<!-- Generator: Adobe Illustrator 19.2.1, SVG Export Plug-In . SVG Version: 6.00 Build 0)  -->
<svg version="1.1" id="Layer_1" xmlns="http://www.w3.org/2000/svg" xmlns:xlink="http://www.w3.org/1999/xlink" x="0px" y="0px"
	 viewBox="0 0 165 182.8" style="enable-background:new 0 0 165 182.8;" xml:space="preserve">
<style type="text/css">
	.st0{fill:#EC6608;}
	.st1{fill:#70624F;}
	.st2{fill:#FFFFFF;}
</style>
<g>
	<path class="st0" d="M75.3,18c1.5-0.9,3.9-1.4,6.4-1.4c2.5,0,4.9,0.5,6.4,1.4c0,0,0,0,0,0l0,0l36.7,21c0.9,0.5,1.2,1.6,0.7,2.4
		c-0.3,0.6-0.9,0.9-1.6,0.9c-0.3,0-0.6-0.1-0.9-0.2L87.8,22l0,0l-1.6-0.9c-0.6-0.3-2.2-0.9-4.6-0.9c-2.4,0-4,0.6-4.6,0.9
		c0,0-48.6,28.1-58,33.9C4.3,64.1,2.5,67.3,2.5,95.9v28.9c0,7.1,5,15.7,11.1,19.2l57.8,33.4c6.1,3.5,16.1,3.5,22.2,0l57.8-33.4
		c6.1-3.5,11.1-12.2,11.1-19.2V58c0-7.1-5-15.7-11.1-19.2L93.6,5.4c-6.1-3.5-16.1-3.5-22.2,0L13.6,38.8C7.5,42.3,2.5,51,2.5,58v2.5
		L75.3,18z"/>
	<path class="st1" d="M32.2,100.4c0.2-1,0.6-2.1,1.1-3C33,98.4,32.6,99.4,32.2,100.4 M20.9,72.9c0.4-1.2,1.5-4,2.6-5.1
		c1.7,6.9-1.5,13.8-5.6,19.6C18.4,82.5,19.4,77.6,20.9,72.9 M46.8,102.6c-0.2-0.2-0.8-0.9-1.4-1.4c-0.5-0.5-1.5-1.5-1.9-1.7
		c-0.9-0.4-2.2-0.1-2.7,1.1c-0.2,0.5-0.5,1-0.8,1.5c-0.4-2.5,0.3-5.3,1.3-7.6c0.3-0.7,0.1-1.3-0.3-1.7c-0.2-0.2-0.9-0.9-1.3-1.4
		c-0.4-0.4-1.1-1.2-1.4-1.4c-0.6-0.4-1.4-0.5-2.1-0.2c-0.2-0.2-0.3-0.4-0.5-0.5c-2.8-2.6-6.6,0.8-7.9,3.3c-0.9,1.6-1.7,3.8-1.9,5.9
		c0,0,0,0-0.1,0.1c-1.1,1.5-5,5.5-7.6,5.4c-0.4-1.3-0.6-2.9-0.7-4.5c2.9-3.1,5.5-6.5,7.8-10c3.4-5.3,5.1-11.3,4.8-17.6
		c-0.1-1.9-0.5-4.1-1.4-5.9c-0.5-0.8-0.9-1.7-2.1-2.7c-0.5-0.6-1.2-1.3-2.5-2.1c-0.5-0.3-1.1-0.5-1.8-0.6c-4.3-0.5-6.6,6.7-7.6,9.6
		c-2.5,7.8-3.6,16.7-3.2,24.9c-2.7,2.9-5.7,5.7-8.8,8.2v6.5c1,0.6,2.1,1.1,2.8,0.6c2.6-2,5.1-4.2,7.6-6.5c0.2,0.4,0.4,0.7,0.6,1
		c0.2,0.3,0.9,1,1.6,1.7c0.9,0.9,2.6,2.5,3.4,2.9c3.8,1.4,8-1.2,10.9-4.1c0,0,0.1,0.1,0.1,0.1c0,0,0,0,0,0c0.1,0.1,0.2,0.3,0.3,0.4
		c2.5,2.5,4.9,2,6.8,0.2c0.1,0.1,0.2,0.1,0.3,0.2c0.2,0.3,0.4,0.5,0.6,0.7c0.2,0.3,0.5,0.5,0.8,0.7c1.2,1.7,3.1,2.2,5,1.2
		c1.8-1,2.9-3.3,3.7-5.1C47.2,103.5,47.1,103,46.8,102.6"/>
	<path class="st1" d="M111,61.2c0,3.4-2.5,6.1-5.6,6.1H94.3v-8.5h14.9c0.5,0,1,0.1,1.5,0.2C110.9,59.7,111,60.5,111,61.2 M132,90.3
		v5.8h-12.8V94c0-3.5,3.7-6.3,8.3-6.3c1.6,0,3,0.3,4.3,0.9C131.9,89.2,132,89.7,132,90.3 M140.9,80.1c-0.4-0.4-0.8-0.8-1.3-1.2
		c-0.4-0.4-0.8-0.9-1.2-1.3c-3.4-3.7-8.1-6.1-13.5-6.4c0.6-1.8,1-3.8,1-5.9c0-4.1-1.3-7.8-3.6-10.7c-0.5-0.6-2-2.2-3.3-3.5
		c-1.3-1.4-2.8-2.8-3.5-3.3c-2.5-1.9-5.6-3.1-8.9-3.1H85.7c-3.3,0-6,2.7-6,6v15.6L78.4,65h-0.1l-1.1-1.1H60.9
		c-7.4,0-15.8,7-15.8,17.8c0,3.5,1.3,6.7,2.9,9.3c0.8,1.4,2.7,3.4,4.3,5c1.7,1.7,3.4,3.3,4.1,3.7c1.4,1,2.9,1.7,4,1.7
		c4.2,0.3,17.6,1,17.8,1c0.3,0,0.6,0,0.9,0.1c0.1,0.5,0.2,0.9,0.2,1.3c0,2.7-2.4,5.1-5.1,5.1H51.1c-3.3,0-6,2.7-6,6
		c0,1,0.3,2,0.7,2.8c0.4,0.8,2.1,2.6,3.2,3.6c0.8,0.9,1.7,1.7,2,1.9c1,0.9,2.4,1.4,3.9,1.4h23.4c6.7,0,15.1-7.8,15.1-17.4
		c0-2.8-0.6-5.4-1.7-7.6c-0.9-1.8-3.4-4.9-5.4-6.8c-0.9-1-1.8-1.8-2.6-2.3c-2.4-1.7-4.9-2.9-7.8-3c-6.8-0.3-15.1-0.7-15.1-0.7
		s-0.3,0-0.8-0.2c-0.1-0.5-0.2-1.1-0.2-1.7c0-3.7,2.8-5.3,4.8-5.3l15.1,0v6.1l3.7,3.7c1.2,0.3,3.1,1.1,5,2.4c0.8,1.2,1.5,2.5,2,4.1
		c0,0.1,0.1,0.2,0.1,0.3l1.1,1c0,0,0,0.1,0.1,0.1l1.4,1.3c0,0.1,0,0.1,0.1,0.2v-0.1l1,1c0,0.1,0.1,0.2,0.1,0.3V82H106
		c-1.4,2.7-2.2,5.7-2.2,9v29.1h0c0,1.1,0.3,2.2,0.9,3.1c0.3,0.5,1.6,1.8,2.7,2.9c1.1,1.1,2.3,2.3,2.8,2.6c0.9,0.6,2,0.9,3.1,0.9
		c3.2,0,5.8-2.6,5.8-5.8v-15.4H132v11.6h0c0,1.3,0.4,2.5,1.2,3.5c0.3,0.4,1.2,1.3,2.1,2.2c1.1,1.1,2.7,2.7,3.4,3.1
		c0.8,0.4,1.8,0.7,2.8,0.7c3.2,0,5.8-2.6,5.8-5.8V94.7C147.4,88.9,144.9,83.7,140.9,80.1"/>
	<path class="st2" d="M33.3,97.2c-0.2,1.1-0.6,2.2-1.2,3.2c-0.6,1.2-1.2,1.6-2.2,0.7c-1.5-2.5,0.6-7.4,2.9-8.8
		c0.6-0.4,0.6,0.3,0.7,1.1C33.7,94.7,33.6,96,33.3,97.2 M14.9,91.2c0.1-7,1.3-14.2,3.5-20.8c0.7-2,3.2-8.6,4.8-3.8
		C26.1,75.5,20.4,84.6,14.9,91.2L14.9,91.2z M40.8,100.6c-0.4,1-1,2-1.7,2.8c-0.5,0.6-1.2-2-1.4-2.7c-0.8-2.7,0-6.1,1-8.7
		c0.7-1.7-1.2-2.6-2.6-2c-0.2-0.2-0.3-0.4-0.5-0.5c-2.8-2.6-6.6,0.8-7.9,3.3c-0.9,1.6-1.7,3.8-1.9,5.9c0,0,0,0-0.1,0.1
		c-1.3,1.7-6.5,7-8.9,4.9c-1.4-1.2-1.9-3.9-2-6.6c2.9-3.1,5.5-6.5,7.8-10c3.4-5.3,5.1-11.3,4.8-17.6c-0.2-3.5-1.3-8.1-5.3-8.6
		c-4.3-0.5-6.6,6.7-7.6,9.6c-2.5,7.8-3.6,16.7-3.2,24.9c-2.7,2.9-5.7,5.7-8.8,8.2v4.7c0.1,0,0.2-0.1,0.2-0.1c3.1-2.4,6.1-5,9-7.9
		c0.5,2.9,1.5,5.9,4.2,6.9c3.8,1.4,8.1-1.3,10.9-4.1c0,0.1,0.1,0.1,0.1,0.2c0.1,0.1,0.2,0.3,0.3,0.4c2.8,2.8,5.4,1.9,7.4-0.4
		c0.3,0.7,0.6,1.4,1.1,2.1c1.2,1.8,3.2,2.3,5,1.3c1.8-1,2.9-3.3,3.7-5.1C45.3,99.3,41.7,98.4,40.8,100.6"/>
	<path class="st2" d="M132,96.1h-16.6v-5.8c0-3.5,3.7-6.3,8.3-6.3c4.6,0,8.3,2.8,8.3,6.3V96.1z M123.8,71.1c-0.5,0-0.9,0-1.4,0.1
		c-2.2,4.4-6.2,7.7-10.9,8.8c-1.5,0.4-3.1,0.7-4.7,0.7h0c-1.8,3-2.9,6.5-2.9,10.3v29.1h0c0,3.2,2.6,5.8,5.8,5.8
		c3.2,0,5.8-2.6,5.8-5.8v0v-15.3H132v15.3h0c0,3.2,2.6,5.8,5.8,5.8c3.2,0,5.8-2.6,5.8-5.8V91C143.7,80,134.7,71.1,123.8,71.1"/>
	<path class="st2" d="M90.6,67.3V55.1h14.9c3.1,0,5.6,2.7,5.6,6.1c0,3.4-2.5,6.1-5.6,6.1H90.6z M122.2,61.5
		c0-9.3-6.9-16.8-15.5-16.8H85.7c-3.3,0-6,2.7-6,6v34.9c2.7,0.7,8.7,3.6,10.8,10.2c0,0.1,0.1,0.2,0.1,0.3V78.3h16.2
		C115.3,78.3,122.2,70.8,122.2,61.5"/>
	<path class="st2" d="M75.9,87.5c-6.8-0.3-15.1-0.7-15.1-0.7S56,86.4,56,81.1c0-3.7,2.8-5.3,4.8-5.3l16.5,0v-12H60.9
		c-7.4,0-15.8,7-15.8,17.8c0,8.7,7.4,15.8,11.6,16.1c4.2,0.3,17.6,1,17.8,1c3.8,0.1,4.8,3.3,4.8,5.1c0,2.7-2.4,5.1-5.1,5.1H51.1
		c-3.3,0-6,2.7-6,6c0,3.3,2.7,6,6,6h23.4c6.7,0,15.1-7.8,15.1-17.4C89.5,94.3,83.1,87.8,75.9,87.5"/>
	<path class="st2" d="M150.9,63c-0.1,0-0.1-0.2-0.1-0.3h0.4C151,62.9,151.1,63.1,150.9,63 M150.4,63.4c0-0.1,0.1-0.3,0.1-0.4
		c0,0,0.1,0,0.1,0c0.1,0.1,0.2,0.2,0.3,0.3C150.7,63.2,150.6,63.3,150.4,63.4 M150.1,61.6c-0.1,0.1-0.1,0.2-0.2,0.2
		c-0.1,0.1-0.2,0-0.2-0.1c0-0.1,0-0.2,0.1-0.3c0.1-0.1,0.3-0.1,0.5-0.1C150.2,61.5,150.2,61.6,150.1,61.6 M148.3,57.7
		c0,0-0.1,0.1-0.2,0.1c-0.1-0.1-0.1-0.1-0.1-0.2c0,0,0,0,0-0.1c0.1,0,0.2,0,0.3,0.1C148.3,57.5,148.3,57.7,148.3,57.7 M147.5,56
		C147.5,56,147.4,55.9,147.5,56c-0.2,0-0.3,0-0.3-0.2c0-0.1,0.1-0.1,0.2-0.2c0.1,0.1,0.3,0,0.2,0.2C147.6,55.8,147.5,55.9,147.5,56
		 M147,54.9c-0.2-0.1-0.1-0.1,0.1-0.3c0.1,0.1,0.2,0.1,0.3,0.2C147.2,54.9,147.2,54.9,147,54.9 M146.7,55.7c-0.1,0-0.2-0.1-0.2,0
		c0,0-0.1,0-0.2-0.1c0-0.1,0.1-0.2,0.1-0.2c0.2,0,0.3-0.1,0.4-0.1c0.1,0,0.1,0,0.1,0c0,0.2,0.1,0.3,0.1,0.4
		C146.9,55.7,146.8,55.7,146.7,55.7 M146.7,68.1c-0.4-0.2-0.4-0.4,0-0.8c0.1,0.2,0.2,0.4,0.2,0.6C147,67.9,146.8,68,146.7,68.1
		 M146.1,55L146.1,55c-0.1-0.1-0.2-0.2-0.2-0.4c0-0.1,0-0.2,0-0.3c0-0.1,0.1-0.2,0.2-0.2c0.2,0.1,0.5,0.1,0.7,0.1c0,0,0.1,0,0.1,0.1
		c0,0-0.1,0.1-0.1,0.1c-0.1,0-0.3,0-0.4,0.1C146.3,54.7,146.2,54.9,146.1,55 M146,68.7c0,0-0.1,0.1-0.1,0.1c-0.1,0-0.2-0.1-0.3-0.1
		c0.1-0.1,0.2-0.2,0.2-0.2c0.1,0,0.2,0.1,0.2,0.1C146,68.6,146,68.7,146,68.7 M145.4,53.8c-0.1-0.1-0.2-0.1-0.3-0.2
		c0.2-0.3,0.2-0.3-0.1-0.7c0.1,0,0.2-0.1,0.3,0c0,0,0.1,0.1,0.1,0.2C145.4,53.4,145.5,53.6,145.4,53.8
		C145.5,53.8,145.5,53.8,145.4,53.8 M143.9,53.1c-0.1,0.1-0.1,0.2-0.2,0.3c-0.1-0.1-0.2-0.2-0.1-0.3c0-0.1,0.1-0.2,0.1-0.3
		c0.1,0,0.2,0.1,0.2,0.1C144,53,144,53.1,143.9,53.1 M142.9,53.1c-0.1-0.1-0.2-0.2-0.3-0.2c0.1-0.1,0.1-0.2,0.2-0.2
		c0.1,0,0.3,0.2,0.3,0.4C143.1,53.1,143,53.2,142.9,53.1 M142.3,53.1c-0.1,0-0.2-0.1-0.1-0.3c0.1,0,0.2,0.1,0.3,0.1
		C142.5,53,142.4,53.1,142.3,53.1 M141.8,52.4c-0.1,0-0.1-0.1-0.2-0.1c0-0.1,0-0.2,0.1-0.2C142,52.2,142,52.3,141.8,52.4
		 M141.8,53.3c-0.1,0-0.1-0.1-0.2-0.1c0-0.1,0.1-0.1,0.1-0.2C141.8,53.1,141.9,53.2,141.8,53.3C141.9,53.3,141.9,53.3,141.8,53.3
		 M139.8,52.5C139.7,52.5,139.7,52.4,139.8,52.5c-0.1-0.1-0.1-0.2-0.1-0.2c0.1-0.1,0.2-0.1,0.4-0.2c-0.2,0-0.3-0.1-0.4-0.1
		c-0.2,0.2-0.2,0-0.3-0.1c0.1-0.2,0.1-0.4,0.2-0.5c0,0,0,0,0.1,0c0,0.1,0,0.2,0,0.4c0,0,0,0,0.1,0c0-0.2,0.2-0.3,0.4-0.2
		c0,0.1,0,0.3,0.1,0.5C140.1,52.4,139.9,52.4,139.8,52.5 M138.5,70.4h-0.3c0-0.1,0.1-0.1,0.1-0.1c-0.1,0-0.1-0.1-0.2-0.1
		C138.6,70.1,138.6,70.1,138.5,70.4 M137.4,69c-0.1-0.1-0.1-0.1-0.2-0.2c-0.1-0.1-0.1-0.2,0-0.3c0,0,0-0.1,0-0.1h0.5
		c-0.1,0.3,0.2,0.4,0.2,0.5C137.8,69.2,137.7,69.2,137.4,69 M137.4,69.9c0-0.1,0.1-0.2,0.1-0.3c0,0,0.1,0,0.1,0
		c0,0.1,0.1,0.2,0.1,0.3H137.4z M137.3,69.4c-0.1,0.1-0.2,0.1-0.3,0.1c0-0.2-0.1-0.4,0.2-0.4C137.4,69.1,137.3,69.3,137.3,69.4
		 M136.7,68.7c0,0-0.1-0.1-0.1-0.1c0-0.1,0.1-0.1,0.1-0.1c0.1,0,0.1,0,0.2,0c0,0,0,0.1,0.1,0.2C136.9,68.7,136.8,68.7,136.7,68.7
		 M136.7,51.8c0.1,0.1,0.3,0.1,0.5,0.2c-0.1,0.2-0.2,0.2-0.3,0.1c0,0-0.1-0.1-0.1-0.1C136.7,51.9,136.7,51.9,136.7,51.8
		C136.7,51.8,136.7,51.8,136.7,51.8 M137.8,52c0,0.1,0,0.2,0,0.3c0,0-0.1,0-0.1,0c0-0.1,0-0.2-0.1-0.4C137.7,52,137.8,52,137.8,52
		 M135.7,68.6C135.7,68.6,135.6,68.6,135.7,68.6c-0.1-0.1-0.1-0.1-0.1-0.2c0.1,0,0.2-0.1,0.3-0.1c0,0,0,0,0,0c0.1,0,0.1,0.1,0.2,0.1
		C136,68.4,135.9,68.5,135.7,68.6 M134.9,52.5h-0.2c0,0,0,0,0,0c0.1-0.1,0.1-0.1,0.2-0.1S134.9,52.4,134.9,52.5
		C135,52.5,135,52.5,134.9,52.5 M134.6,67.1c-0.1,0-0.2,0-0.3,0c0,0,0,0,0,0c-0.1,0-0.2,0.1-0.3,0.1c-0.1,0-0.1-0.1-0.2-0.1
		c0.1-0.1,0.2-0.1,0.2-0.2c0.1,0.1,0.2,0,0.2,0c0.1-0.1,0.4,0.1,0.4,0.2C134.7,67,134.6,67.1,134.6,67.1 M134.3,67.5
		C134.2,67.5,134.2,67.5,134.3,67.5c-0.1-0.1-0.1-0.1-0.1-0.2c0.1,0,0.1,0,0.2,0C134.3,67.3,134.3,67.4,134.3,67.5 M133.5,53.8
		c0,0,0-0.1,0-0.2c0.1-0.1,0.2-0.1,0.3,0C133.7,53.8,133.6,53.9,133.5,53.8 M131.1,65.4c0,0-0.1-0.1-0.1-0.1c0.1,0,0.1-0.1,0.2-0.1
		c0,0,0.1,0,0.1,0.1c0,0,0,0,0,0.1C131.3,65.3,131.2,65.4,131.1,65.4 M131.2,66c-0.2,0.1-0.2,0.1-0.4-0.1c0.1-0.1,0.4-0.1,0.4,0
		C131.3,65.9,131.2,66,131.2,66 M130.6,65.1c-0.1,0-0.2-0.1-0.2-0.1c-0.1-0.2-0.5-0.3-0.3-0.7c0.1,0,0.2,0,0.3-0.1
		c0,0.1,0,0.1,0.1,0.2c0,0.1,0.1,0.2,0.1,0.3C130.7,64.8,130.8,64.9,130.6,65.1 M129.8,55c0-0.1,0-0.2,0-0.2c0,0,0.1,0,0.2,0
		c0.1,0,0.2,0.1,0.2,0.1c-0.1,0.1-0.1,0.3-0.3,0.3C129.9,55.1,129.9,55,129.8,55 M129.7,58c-0.2,0.2-0.1,0-0.2-0.1
		c0.2-0.2-0.1-0.3,0.1-0.4c0,0,0.3,0,0.3,0.3C129.7,58,129.7,57.9,129.7,58 M129.5,62.6c-0.1-0.1-0.1-0.1-0.1-0.1
		c0,0,0.1-0.1,0.1-0.1c0,0,0.1,0.1,0.1,0.1C129.6,62.5,129.5,62.6,129.5,62.6 M151.3,62.7c0-0.1-0.1-0.2-0.1-0.3
		c-0.1-0.1-0.2-0.2-0.3-0.3c0,0,0-0.2-0.1-0.2c-0.1,0-0.2-0.1-0.1-0.2c0-0.1,0.1-0.2,0.1-0.2c0.2-0.1,0.3-0.2,0.1-0.3
		c-0.1-0.1-0.3-0.2-0.5-0.3c-0.3-0.1-0.4-0.2-0.3-0.5c0,0,0-0.1-0.1-0.2c-0.1-0.2-0.2-0.4-0.3-0.6c-0.1-0.1-0.1-0.3-0.1-0.4
		c-0.2-0.2-0.2-0.4-0.1-0.6c0.1-0.3-0.1-0.6-0.2-0.9c-0.1-0.2-0.2-0.4-0.3-0.5c-0.2-0.1-0.1-0.2-0.1-0.3c-0.1-0.3-0.1-0.6-0.1-0.8
		c0-0.3,0-0.6-0.3-0.8c0,0,0,0,0-0.1c-0.1-0.1-0.2-0.2-0.3-0.2c-0.4,0-0.7-0.2-0.7-0.7c0-0.2-0.1-0.3-0.2-0.2
		c-0.4,0.1-0.6-0.2-0.9-0.3c0,0,0-0.1-0.1-0.1c-0.1-0.1-0.1-0.1-0.2-0.2c0,0-0.1-0.1-0.1-0.1c-0.1-0.3-0.3-0.5-0.6-0.5
		c-0.2,0-0.4,0-0.5-0.1c-0.1,0-0.1-0.1-0.2-0.1c-0.2,0-0.3-0.1-0.4-0.2c-0.1-0.1-0.8,0-0.9,0c-0.4-0.1-0.2-0.5-0.5-0.7
		c-0.1-0.1-0.4-0.1-0.6-0.3c-0.1-0.1-0.3-0.1-0.5-0.1c-0.1,0-0.2,0-0.3,0c-0.2,0.1-0.3,0-0.5,0c-0.1,0-0.2,0-0.3-0.1
		c-0.1,0-0.1-0.1-0.2-0.1c-0.2-0.1-0.4-0.1-0.6-0.1c-0.2,0-0.4-0.1-0.5,0c-0.2,0.1-0.5,0-0.7,0.1c0,0-0.1,0-0.2,0
		c-0.2-0.1-0.4-0.1-0.6-0.2c0,0-0.1,0-0.2,0c-0.1,0-0.1,0-0.2,0c-0.2,0-0.3,0.1-0.4,0.2c-0.1,0.1-0.2,0.1-0.3,0.1
		c-0.3,0-0.6,0-0.8,0c-0.3,0-0.6,0.2-0.9,0.2c-0.3,0-0.3,0.3-0.3,0.3c-0.2,0.1-0.8,0.5-1,0.6c0-0.1-0.1,0-0.2,0.2
		c-0.1-0.1-0.1-0.1-0.1-0.2c-0.2,0.1-0.3,0.3-0.5,0.3c-0.3,0.1-0.5,0.2-0.8,0.2c-0.3,0-0.6,0.2-0.9,0.3c-0.2,0-0.3,0.2-0.5,0.3
		c-0.3,0.2-0.6,0.4-0.8,0.6c-0.1,0.1-0.1,0.1-0.2,0.2c-0.2,0.1-0.5,0-0.6,0.3c-0.1,0.2-0.2,0.4-0.2,0.6c0,0.2-0.1,0.3-0.2,0.3
		c-0.2,0.1-0.3,0.4-0.1,0.6c-0.1,0.1-0.1,0.2-0.2,0.3c0,0.1-0.1,0.1-0.1,0.2c-0.2,0.1-0.1,0.1,0,0.2c0.2,0.1,0,0.4-0.1,0.4
		c-0.1,0.1-0.2,0.3-0.1,0.4l0.1,0c0.1,0,0.4-0.2,0.3,0.1c0,0.3-0.2,0.1-0.3,0.1c0,0-0.1,0.3-0.1,0.3c-0.1,0-0.1,0.1,0,0.2
		c0,0,0.2,0.3,0.3,0.4c-0.1,0.1-0.2,0.1-0.2,0.2c-0.1,0.1,0.1,0.1,0.1,0.2c0.1,0,0.1,0.1,0.2,0.1c0.1,0,0.1,0,0.2,0
		c0,0-0.1,0.1-0.1,0.1c0,0,0,0,0,0c0,0.1-0.3,0.1-0.3,0.2c0,0.1-0.2,0.8,0.2,0.5c-0.1,0.2-0.1,0.4,0.1,0.6c0.1,0.1,0.1,0.2,0.1,0.3
		c-0.1,0.3-0.1,0.6,0.1,0.8c0,0,0,0.1,0,0.1c0,0,0,0,0,0c0-0.1,0.1-0.3,0.2-0.1c0,0,0,0.1,0,0.1c-0.1,0.1,0,0.2,0.1,0.2
		c0.2,0,0.1,0.1,0.1,0.2c0,0.1-0.1,0.3-0.1,0.4c0,0.1,0,0.1-0.1,0.2c0.1,0.1,0.2,0.3,0.4,0.3c0.1,0,0.2,0.1,0.3,0.1
		c0,0,0.1,0.1,0.1,0.1c0,0-0.1,0.1-0.1,0.1c-0.1,0-0.2,0-0.3-0.1c0,0.1,0.1,0.2,0.1,0.3c0,0,0,0.1,0,0.1c-0.1,0.3,0.1,0.5,0.2,0.7
		c0,0,0,0.1,0,0.1c-0.1,0.2,0,0.4,0.1,0.5c0.1,0.1,0.1,0.1,0.1,0.2c0.1,0.1,0.2,0.1,0.1,0.3c0,0.1,0,0.2,0,0.3
		c0.1,0.2,0.1,0.4,0.3,0.6c0.1,0.1,0.2,0.2,0.4,0.3c0,0,0.2-0.1,0.3-0.1c0.3,0.2,0.5,0.5,0.8,0.7c0,0,0.1,0,0.1,0
		c0.2,0,0.3-0.1,0.4,0.1c0.3-0.1,0.5,0.2,0.8,0.1c0.3-0.1,0.6,0.2,0.8,0.4c0.2,0.1,0.3,0.2,0.6,0.2c0.1,0,0.3,0.1,0.4,0.1
		c0.2,0.1,0.3,0.2,0.5,0.2c0.3,0,0.5,0.3,0.7,0.5c0.1,0.1,0.2,0.2,0.3,0.3c0.1,0.1,0.2,0,0.3,0c0.1,0,0.1,0.2,0.2,0.2
		c0.1,0.1,0.3,0.3,0.4,0.4c0.2,0.3,0.3,0.4,0.7,0.3c0,0,0.1,0,0.1,0c0,0,0,0.1,0,0.1c0,0.1-0.1,0-0.1,0.1c0.1,0.1,0.2,0.1,0.3,0.2
		c0.1,0.1,0.2,0.2,0.3,0.2c0.2,0.1,0.4,0.2,0.6,0.3c0,0,0,0,0,0c0.2,0,0.4,0,0.7,0c0,0,0.1,0.1,0.1,0.1h0.2c0,0,0.1-0.1,0.1-0.1
		c0.3,0,0.7-0.2,1-0.2c0.2,0,0.3,0,0.6,0c0-0.1-0.1-0.1-0.1-0.1c-0.1-0.1,0-0.1,0.1-0.2c0.1-0.1,0.1,0.1,0.2,0.3c0,0,0.1,0,0.1,0
		c0.2-0.1,0.5-0.1,0.7-0.2c0.2-0.1,0.4-0.2,0.7-0.4c0.1-0.1,0.3-0.1,0.4-0.2c0.1,0,0.2-0.3,0.1-0.4c-0.1,0.2-0.2,0-0.4,0
		c0,0-0.1,0-0.1-0.1c0,0,0,0.1-0.1,0.1c0,0.1-0.1,0.2-0.1,0.2c-0.2,0-0.3-0.1-0.5-0.1c0.3-0.2,0.5-0.3,0.7-0.5
		c0.1-0.1,0.2-0.1,0.2,0c0.1,0.1,0.2,0.2,0.3,0.2c0.2-0.1,0.2,0,0.2,0.1c0.2,0,0.3,0,0.5,0c0-0.1,0-0.1,0.1-0.2
		c-0.1-0.1-0.2-0.1-0.2-0.2c0,0,0,0,0-0.1h0.4c0-0.1,0-0.2,0-0.2c0-0.1,0-0.2,0.1-0.2c0.1-0.1,0.1,0,0.2,0.1
		c0.1,0.1,0.2,0.2,0.2,0.1c0.1-0.1,0.3-0.1,0.4-0.2c0.1-0.1,0.3-0.3,0.3-0.5c0,0,0.1,0,0.1-0.1c0.2,0.1,0.3,0.1,0.4-0.1
		c0-0.2,0.1-0.2,0.3-0.1c0.1-0.2,0.2-0.4,0.3-0.5c0.1-0.1,0.2-0.2,0.3-0.2c0.1,0,0.2,0,0.3,0c0.1,0,0.1-0.1,0-0.2
		c-0.1-0.1-0.1-0.1-0.2-0.2c0.1-0.1,0.2-0.1,0.2-0.1c0.1,0.1,0.1,0.2,0.2,0.3c0.1-0.1,0.2-0.1,0.3-0.2c0,0,0-0.1-0.1-0.2
		c0,0,0,0,0,0c0.1,0,0.2,0.1,0.3,0.1c0-0.1,0.2-0.2,0-0.3c-0.1,0-0.1-0.2,0-0.2c0.1,0.1,0.2,0.2,0.3,0.3c0.1-0.1,0.1-0.1,0.2-0.2
		c0.1-0.3,0.1,0.1,0.3-0.1c0.1-0.2,0.5-0.3,0.3-0.6c0,0,0,0,0,0c0.1,0,0.1,0.1,0.2,0.1c0.2,0,0.5-0.3,0.5-0.5c0-0.2,0.1-0.4,0.2-0.6
		c0.1-0.1,0.1-0.3,0-0.4c0,0,0-0.1,0-0.2c0,0,0.1-0.1,0.1-0.1c0.2,0.1,0.2-0.1,0.3-0.1c0.1-0.1,0.1-0.2,0.2-0.2c0,0,0.1-0.2,0.1-0.2
		c-0.1-0.1-0.1-0.2,0-0.3C151.3,62.8,151.3,62.7,151.3,62.7"/>
	<path class="st2" d="M128.4,58.3C128.5,58.4,128.5,58.4,128.4,58.3C128.4,58.3,128.4,58.3,128.4,58.3"/>
	<path class="st2" d="M138.2,46.1c0.1,0,0.3-0.1,0.3-0.3c0,0,0.1-0.1,0.1-0.1c0.2,0.2,0.4,0.2,0.1,0.5
		C138.4,46.7,137.9,46.3,138.2,46.1 M138.3,45c0,0.1,0.1,0.2,0.1,0.2c0,0-0.1,0-0.1,0c-0.1-0.1-0.1-0.1-0.1-0.2
		C138.2,45.1,138.3,45.1,138.3,45 M137.5,46.8c0.1,0.3,0.2,0.6,0.6,0.7v0.2c0.1,0,0.2,0,0.3-0.1c0,0,0,0,0,0.1
		c-0.1,0-0.1,0.1-0.2,0.1c0.2,0.2,0.2,0.6,0.5,0.7c0.1,0.1,0.1,0.3,0.2,0.4c0.1,0.1,0.3,0.3,0.4,0.3c0.2,0.1,0.5,0.1,0.7,0.2
		c0.2,0.1,0.4,0.1,0.6,0.1c0.2,0,0.4,0,0.6-0.1c0.1-0.1,0.3-0.1,0.5-0.1c0.3,0,0.4-0.3,0.3-0.5c0-0.1,0-0.2,0-0.2c0,0,0,0,0.1,0
		c0.1,0.1,0.2,0.2,0.3,0.3c0,0,0,0,0,0c0-0.1,0-0.2-0.1-0.2c0.1,0,0.1,0,0.2,0c0-0.1,0-0.1,0.3-0.5c0,0,0-0.1,0-0.1
		c0.1,0,0.2-0.1,0.2-0.1c0-0.2,0.2-0.2,0.3-0.2c0-0.2,0-0.3,0.2-0.3c-0.1-0.1-0.1-0.3-0.1-0.4c0-0.1,0.1-0.3-0.1-0.4
		c0,0,0-0.1,0-0.1c0.2-0.1,0.1-0.3,0.1-0.4c0.2-0.2,0.4-0.4,0.5-0.6c0.2-0.2,0.1-0.4,0.1-0.6c0-0.2-0.1-0.4-0.2-0.6
		c-0.1-0.2-0.2-0.5,0-0.7c0.1-0.1,0-0.2,0-0.3c0-0.2-0.1-0.4-0.2-0.5c0-0.3-0.2-0.4-0.4-0.5c-0.1,0.1-0.1,0.2-0.2,0.2
		c-0.2-0.1-0.4-0.2-0.5-0.2c0,0,0-0.1,0-0.1c0-0.1,0-0.2,0.1-0.3c0.1,0,0.1-0.1,0.2-0.2c-0.1-0.2-0.3-0.2-0.5-0.1c0,0,0,0-0.1,0
		c-0.3-0.1-0.5-0.1-0.8-0.2c-0.2-0.1-0.3-0.2-0.5-0.3h-0.3c0,0-0.1,0.1-0.1,0.1c-0.2,0-0.3,0.1-0.2,0.3c0,0.1,0,0.1,0,0.2
		c0,0,0,0,0,0c0,0,0.1,0,0.1,0c0,0.2,0,0.2-0.1,0.2c0,0-0.1,0-0.1,0.1c-0.1,0.1-0.1,0.2-0.2,0.2c-0.1,0-0.2-0.1-0.3-0.2
		c0,0-0.1,0-0.1-0.1c0.1,0.1,0.1,0.3,0.1,0.3c0,0.1-0.1,0.2-0.2,0.3c-0.1-0.1-0.3-0.1-0.4-0.2c-0.3-0.2-0.3-0.2-0.5,0.1
		c0,0.1-0.1,0.1-0.1,0.2c-0.1,0.2-0.2,0.5-0.5,0.6c0,0-0.1,0-0.1,0.1c-0.2,0.2-0.3,0.5-0.5,0.7c0,0,0,0.1,0,0.1c0,0.3,0,0.6,0.1,0.9
		c0,0,0,0,0,0.1c0,0.1,0,0.2-0.1,0.2c-0.1,0.3-0.1,0.5-0.2,0.8c0.1,0,0.2,0.1,0.3,0.2C137.5,46.3,137.5,46.6,137.5,46.8"/>
	<path class="st2" d="M158.2,57.3c-0.3,0.1-0.4-0.1-0.6-0.3c0.1-0.2,0.2-0.3,0.4-0.2C158.2,56.9,158.2,57,158.2,57.3 M157.5,55.6
		c0.1-0.1,0-0.3,0.2-0.3c0.1,0,0.2,0.1,0.2,0.2c0,0.2-0.1,0.2-0.2,0.2C157.6,55.7,157.5,55.7,157.5,55.6 M157,55.7
		c0,0-0.1,0-0.1-0.1c0-0.1,0-0.1,0.1-0.2c0.1,0.1,0.1,0.2,0.2,0.2C157.1,55.6,157.1,55.7,157,55.7 M156.4,59.3
		c0-0.2-0.3-0.3-0.3-0.5c0,0,0,0,0-0.1C156.5,58.7,156.5,59,156.4,59.3 M154.8,59c-0.1,0-0.2-0.1-0.2-0.1c0-0.1,0.1-0.1,0.2-0.2
		c0.1,0.1,0.1,0.2,0.2,0.2C154.9,58.9,154.9,59,154.8,59 M154.5,59.4c-0.1,0.1-0.1,0.1-0.2,0.2c0-0.1-0.1-0.2-0.1-0.4
		c0-0.1,0.1-0.2,0.2-0.2c0.1,0,0.2,0,0.2,0.1C154.6,59.3,154.5,59.3,154.5,59.4 M153.6,55.6c-0.1,0-0.1-0.1-0.2-0.1c0,0,0-0.1,0-0.1
		C153.6,55.4,153.6,55.4,153.6,55.6C153.7,55.5,153.6,55.5,153.6,55.6 M152.2,58.9c-0.1,0-0.1,0-0.2,0c0,0,0-0.1,0-0.1
		c0.1,0,0.1,0,0.2,0c0,0,0.1,0,0.1,0.1C152.3,58.8,152.2,58.9,152.2,58.9 M152.1,56.5c0.2,0.2,0.2,0.4-0.1,0.5
		C151.9,57,151.9,57,152.1,56.5 M158.7,55.9v-0.3c-0.3,0-0.3-0.1-0.3-0.3c0-0.1,0-0.2,0-0.2c-0.1-0.1-0.2-0.2-0.3-0.3
		c-0.1-0.1-0.2,0-0.3-0.1c-0.1-0.1-0.2-0.2-0.4-0.1c-0.1,0-0.2,0-0.3,0.1c0-0.1,0-0.1,0-0.1c0,0,0.1-0.1,0.1-0.1
		c0-0.1-0.1-0.1-0.1-0.1c-0.1,0-0.1-0.1-0.2-0.1c-0.1-0.1-0.2-0.1-0.3-0.2c0,0-0.1,0-0.1,0c-0.3-0.2-0.6-0.2-1,0c0,0-0.1,0-0.1,0
		c-0.2,0-0.3,0.1-0.4,0.3c-0.2,0.3-0.5,0.5-0.9,0.2c0.1-0.1,0.1-0.1,0.2-0.2c0.1,0,0.2,0.1,0.3,0.1c0-0.1,0.1-0.2,0.1-0.3
		c-0.1-0.1-0.3-0.2-0.3-0.2c-0.1,0.1-0.2,0-0.3,0c-0.1-0.1-0.2,0-0.3,0.1c-0.1,0.1-0.2,0.2-0.3,0.4c0,0-0.1,0.1,0,0.1
		c0.1,0.1,0,0.3-0.1,0.3c-0.1,0-0.2,0-0.3,0v-0.1c0,0,0.1-0.1,0.1-0.2c-0.1,0-0.2-0.1-0.2-0.1c-0.1,0-0.1,0.1-0.1,0.2
		c-0.1,0.1-0.1,0.2-0.2,0.3c-0.2,0.1-0.2,0.3-0.2,0.5c0,0.1-0.1,0.1-0.1,0.2c-0.1,0.1-0.3,0.2-0.4,0.3c-0.2,0.2-0.4,0.5-0.3,0.8
		c0,0.2-0.1,0.3-0.2,0.5c-0.1,0.2-0.1,0.4,0.1,0.5c0.1,0.1,0.1,0.2,0,0.4c-0.1,0.1-0.1,0.3,0.1,0.4c0,0,0.1,0,0.1,0.1
		c0.1,0.2,0.2,0.2,0.4,0.2c-0.1,0.3,0,0.5,0.2,0.6c0.3,0.2,0.7,0.1,0.9,0.4c0.3,0,0.5,0.1,0.8,0.1c0.2,0,0.3,0,0.5,0.2
		c0,0,0.1,0.1,0.1,0c0.1-0.1,0.2,0,0.3,0c0.1,0,0.2,0,0.3-0.1c0,0,0-0.1,0-0.2c0-0.1,0-0.1-0.1-0.2c0.3-0.1,0.5-0.3,0.5-0.6
		c0-0.1,0.2-0.3,0.3-0.3c0,0,0.1,0,0.1,0.1c0,0,0,0.1,0,0.1c-0.2,0.1-0.2,0.3-0.3,0.4c0,0,0,0.2,0,0.2c0.1,0,0.2,0,0.2,0
		c0.1,0,0.1,0,0.1,0c0.3,0,0.3-0.1,0.4-0.4c0,0,0,0,0.1,0c0.3,0.1,0.6,0.1,0.8-0.1c0.2-0.2,0.5-0.2,0.5-0.6c0,0,0-0.1,0.1-0.1
		c0.2-0.1,0.3-0.3,0.4-0.5c0,0,0.1-0.1,0.1-0.1c0.1-0.1,0.2-0.3,0.2-0.4c0-0.3,0.1-0.5,0.1-0.8c0,0,0,0,0.1,0v-0.2
		c0,0-0.1-0.1-0.1-0.1c-0.1-0.1-0.2-0.2-0.2-0.2c0,0-0.1,0-0.1-0.1c0,0,0-0.1,0-0.1C158.5,56.2,158.5,55.9,158.7,55.9"/>
	<path class="st2" d="M129.7,49.5c0,0,0.1,0,0.1,0.1c-0.1,0.1-0.2,0.2-0.2,0.3c-0.1-0.1-0.1-0.1-0.2-0.2
		C129.5,49.7,129.6,49.6,129.7,49.5 M132.1,46.3C132.1,46.3,132.2,46.3,132.1,46.3c0.1,0,0.1,0,0.1,0c0,0.1,0,0.2-0.1,0.3
		C132,46.5,132.1,46.4,132.1,46.3 M132.9,45c0,0,0,0.1,0,0.2c-0.1,0-0.2,0-0.3,0C132.7,45,132.8,44.9,132.9,45 M132.8,45.4
		c-0.1,0-0.1-0.1-0.1-0.1c0,0,0.1-0.1,0.1-0.1c0,0,0.1,0.1,0.1,0.1C132.9,45.4,132.9,45.4,132.8,45.4 M128.5,47
		c0.1,0.3,0.1,0.6,0.2,0.8c0,0.1,0,0.2,0,0.2c0.1,0.2,0,0.4,0,0.6c0,0.1,0,0.2,0,0.2c0.1,0.1,0.2,0.2,0.3,0.3
		c0.2,0.4,0.5,0.7,0.7,1.1c0,0.1,0.1,0.1,0.1,0.2c0,0.2,0.2,0.3,0.3,0.4c0-0.1,0.1-0.1,0.1-0.2c0.1,0.2,0.3,0.3,0.4,0.5
		c0.1,0.1,0.2,0.2,0.4,0.4c0.1,0.1,0.4,0.1,0.5,0c0.4-0.1,0.7-0.1,1.1-0.2c0.2-0.1,0.3-0.1,0.2-0.3c0.1-0.1,0.3,0.1,0.4-0.1
		c-0.1-0.1-0.3-0.2,0-0.2c0,0,0.1-0.1,0.1-0.1c0.2,0,0.3,0,0.5,0.1c-0.1-0.3,0.2-0.2,0.2-0.3c-0.1-0.1-0.2-0.2-0.2-0.3
		c0-0.1,0.1-0.2,0.1-0.3c0-0.1,0-0.2,0-0.3c0.1,0.1,0.1,0.1,0.2,0.2c0.1-0.2,0.1-0.3,0.2-0.5c0,0,0,0,0-0.1c-0.1-0.2,0-0.3,0.1-0.4
		c0.1-0.1,0.1-0.2,0.1-0.3c0-0.1,0-0.3,0.1-0.4c0.1-0.3,0.1-0.5-0.3-0.6c0-0.1,0.1-0.1,0.1-0.2c0,0,0-0.1,0-0.1
		c-0.1-0.2,0-0.5-0.4-0.4c-0.4,0.1-0.7,0-1.1-0.1c-0.1,0-0.1-0.1-0.1-0.2c0-0.2,0.1-0.3,0-0.5c0,0,0-0.1,0.1-0.1c0,0,0.1,0,0.1,0
		c0.1,0.1,0.6,0,0.3,0.3c-0.2,0.2,0.7,0.2,0.6-0.2c-0.1-0.2-0.2-0.3-0.2-0.4c-0.2,0.1-0.3,0.1-0.5,0.1c-0.1,0-0.1-0.1-0.2-0.2
		c0.1,0,0.1-0.1,0.2-0.1c0.1,0,0.2-0.1,0.2-0.1c-0.1-0.2-0.2-0.4-0.3-0.5c-0.1,0-0.2,0-0.2-0.1c0,0,0-0.1,0-0.3c0,0,0,0,0,0
		c-0.3-0.1-0.5-0.3-0.8-0.4c0,0-0.1,0-0.1,0.1c0,0-0.1,0.1-0.1,0c0,0-0.1-0.1-0.1-0.1c0.1-0.2-0.1-0.1-0.2-0.2c0,0-0.1,0-0.1,0
		c-0.2-0.1-0.5-0.1-0.7,0.1c-0.2,0.2-0.5,0.3-0.8,0.3c-0.2,0-0.3,0.1-0.3,0.2c0,0.2-0.2,0.2-0.3,0.3c-0.5,0.2-0.7,0.5-0.8,1
		c0,0,0,0.1-0.1,0.1c0,0.1-0.1,0.2-0.1,0.3c0,0.3-0.1,0.3-0.3,0.4L128.5,47C128.4,47,128.5,47,128.5,47"/>
	<path class="st2" d="M146.8,49.7C146.8,49.7,146.8,49.7,146.8,49.7c0.1,0.1,0.1,0.2,0.1,0.2c0,0-0.1,0.1-0.1,0.1
		c0,0-0.1-0.1-0.1-0.1C146.7,49.8,146.7,49.8,146.8,49.7 M147.5,47.5c0,0,0.1,0,0.1,0c0,0.1,0,0.2,0,0.3c-0.1,0-0.1,0-0.2,0
		C147.5,47.7,147.5,47.6,147.5,47.5 M147.8,51.6c0-0.1,0-0.2,0.1-0.2c0.1,0,0.2,0.1,0.2,0.2c0,0.4,0,0.7,0,0.8c0.1,0,0.1,0,0.1,0
		c-0.1,0-0.1,0-0.1,0c-0.1,0-0.2,0-0.3-0.1C147.8,52.1,147.8,51.7,147.8,51.6 M148,46.6c0,0,0.1-0.1,0.1-0.1
		c0.1,0.1,0.2,0.1,0.1,0.3c-0.1,0.1-0.2,0.2-0.3,0.3C148,46.9,147.9,46.7,148,46.6 M149.5,52.1c0.1-0.1,0.2-0.2,0.3-0.2
		c0.1,0.2,0.1,0.3-0.1,0.3c0,0,0,0-0.1,0c-0.1,0-0.1,0.1-0.2,0.1C149.4,52.2,149.4,52.1,149.5,52.1
		C149.4,52.1,149.4,52.1,149.5,52.1 M149.7,51.5c0,0,0,0.1-0.1,0.1c0,0-0.1,0-0.1,0c0-0.1,0-0.1-0.1-0.2
		C149.6,51.5,149.6,51.5,149.7,51.5 M150.2,52c0,0.1,0,0.2,0.1,0.3c-0.1,0-0.2,0-0.3,0c0,0,0-0.1,0-0.1C150,52.2,150,52.1,150.2,52
		 M150.9,51.3c0.1,0,0.2,0,0.2,0c0,0.1,0.1,0.3,0.1,0.3C150.9,51.6,151,51.4,150.9,51.3C150.8,51.3,150.9,51.3,150.9,51.3
		 M151.7,45.2c-0.1,0.1-0.1,0.2-0.2,0.1c-0.1,0-0.2-0.1-0.1-0.2c0,0-0.1-0.1-0.1-0.1C151.6,44.8,151.5,45.1,151.7,45.2 M152.5,49.6
		c0.2,0.2,0.1,0.3-0.1,0.4C152.4,49.8,152.4,49.7,152.5,49.6 M146.4,51.1c0.2,0.1,0.2,0.2,0.3,0.3c0,0.1,0.1,0.2,0.3,0.3
		c0.2,0,0.2,0.2,0.1,0.3c-0.1,0.2-0.1,0.3,0.1,0.4c0.2,0.1,0.5,0.1,0.7,0.2c0.2,0,0.3,0.1,0.5,0.1c0.2,0,0.4,0,0.5-0.1
		c0.1,0.3,0.1,0.4,0.4,0.4c0.1,0,0.2,0,0.2,0.1c0.1,0,0.3,0,0.3-0.1c0-0.1,0.1-0.2,0.2-0.3c0.1-0.1,0.1-0.1,0.1-0.2
		c0-0.1,0.1-0.2,0.1-0.2c0.2,0,0.1-0.1,0.1-0.2c0-0.1,0-0.2,0.1-0.2c0.1,0,0.2,0,0.3,0.1c0.2,0.1,0.3,0.1,0.4,0
		c0.1-0.1,0.1-0.1,0.2-0.2v-0.2c0.1-0.1,0.2-0.1,0.3-0.2c-0.1,0-0.1-0.1-0.2-0.1c0-0.1-0.1-0.1-0.1-0.2c0,0,0.1-0.1,0.1-0.1
		c0,0,0.1,0.1,0.1,0.1c0,0,0.1,0,0.1,0.1c0,0,0.1-0.1,0.1-0.1c0-0.1,0-0.2,0-0.3c0.1,0.1,0.2,0.1,0.2,0.1c0.1,0.1,0.1,0.2,0.3,0.1
		c0,0,0.1,0,0.1,0c0.3,0.1,0.4,0,0.4-0.3c0-0.2,0.1-0.4,0.1-0.6c0-0.1,0.1-0.2,0.1-0.2c-0.1-0.2,0-0.2,0.2-0.3
		c0.2-0.1,0.2-0.2,0.2-0.4c0-0.1,0-0.1,0-0.2c0-0.3,0.2-0.7,0.1-1c0,0,0-0.1,0-0.1c0.2-0.4-0.1-0.7-0.1-1c0-0.3-0.2-0.5-0.3-0.8
		c-0.1-0.2-0.2-0.5-0.3-0.7c0,0-0.1,0-0.1-0.1c-0.3-0.1-0.5-0.4-0.8-0.5c0,0,0,0,0,0c-0.2-0.2-0.4-0.2-0.6-0.1c0,0-0.1,0-0.1,0
		c-0.3-0.1-0.5-0.2-0.7,0.1c0,0,0,0-0.1,0.1c-0.2,0.1-0.3,0.2-0.4,0.3c-0.2,0-0.3,0-0.4,0c-0.2,0-0.3,0-0.5,0c0,0-0.1,0-0.1,0
		c-0.2,0-0.3,0.2-0.4,0.3c0.1,0.1,0.2,0.1,0.3,0.2c-0.1,0.1-0.2,0.2-0.4,0.3c-0.2,0.2-0.4,0.3-0.6,0.4c-0.1,0.1-0.2,0.3-0.2,0.5
		c0,0.1-0.1,0.2-0.1,0.3c-0.2,0.1-0.3,0.3-0.3,0.5c-0.1,0-0.1,0-0.1,0c-0.1,0-0.2,0.1-0.2,0.2c0,0.2-0.1,0.3-0.1,0.5
		c0,0,0.1,0,0.2,0c-0.1,0.1-0.2,0.2-0.3,0.3c-0.1,0.1-0.2,0.2-0.2,0.3c0,0.1,0,0.3-0.1,0.3c-0.2,0.1-0.2,0.2,0,0.3
		c0.1,0.1,0.2,0.2,0.1,0.3c-0.1,0.1-0.2,0.3-0.3,0.4c0,0,0,0.1,0,0.1c0.1,0.3,0.1,0.5-0.1,0.7C146.3,51,146.3,51.1,146.4,51.1"/>
</g>
</svg>
