<?xml version="1.0" encoding="utf-8"?>
<!-- Generator: Adobe Illustrator 19.2.1, SVG Export Plug-In . SVG Version: 6.00 Build 0)  -->
<svg version="1.1" id="Calque_1" xmlns="http://www.w3.org/2000/svg" xmlns:xlink="http://www.w3.org/1999/xlink" x="0px" y="0px"
	 viewBox="0 0 89.3 97" style="enable-background:new 0 0 89.3 97;" xml:space="preserve">
<style type="text/css">
	.st0{fill:#FFFFFF;}
</style>
<g>
	<circle class="st0" cx="12.7" cy="28.6" r="3.5"/>
	<circle class="st0" cx="12.7" cy="41.8" r="3.5"/>
	<g>
		<circle class="st0" cx="12.7" cy="55.1" r="3.5"/>
		<path class="st0" d="M54.7,57.6h-34c-1.4,0-2.5-1.1-2.5-2.5v0c0-1.4,1.1-2.5,2.5-2.5h34c1.4,0,2.5,1.1,2.5,2.5v0
			C57.2,56.5,56.1,57.6,54.7,57.6z"/>
	</g>
	<g>
		<circle class="st0" cx="12.7" cy="68.3" r="3.5"/>
		<path class="st0" d="M54.7,70.8h-34c-1.4,0-2.5-1.1-2.5-2.5v0c0-1.4,1.1-2.5,2.5-2.5h34c1.4,0,2.5,1.1,2.5,2.5v0
			C57.2,69.7,56.1,70.8,54.7,70.8z"/>
	</g>
	<g>
		<circle class="st0" cx="12.7" cy="81.6" r="3.5"/>
		<path class="st0" d="M54.7,84.1h-34c-1.4,0-2.5-1.1-2.5-2.5v0c0-1.4,1.1-2.5,2.5-2.5h34c1.4,0,2.5,1.1,2.5,2.5v0
			C57.2,83,56.1,84.1,54.7,84.1z"/>
	</g>
	<path class="st0" d="M39.7,25.8h-19c-1.4,0-2.5,1.1-2.5,2.5s1.1,2.5,2.5,2.5h23.2C42.4,29.8,40.9,27.8,39.7,25.8z"/>
	<path class="st0" d="M53.1,39.8H20.7c-1.4,0-2.5,1.1-2.5,2.5s1.1,2.5,2.5,2.5h34c1.2,0,2.2-0.8,2.4-1.9
		C55.9,42,54.5,40.8,53.1,39.8z"/>
	<path class="st0" d="M61.1,45v41.9c0,3.3-2.4,6-5.8,6H10.1c-3.3,0-6-2.7-6-6v-65c0-3.3,2.7-6,6-6h25.4c0-0.1,0-0.2,0-0.3
		c0-0.6,0-1.1,0.1-1.7h-0.1c0-0.3,0-0.7,0.1-1h-1H10.1h-1c-4.4,0-8,3.6-8,8v66c0,2.5,1.1,4.7,2.9,6.1c1.5,1.8,3.7,2.9,6.1,2.9h46.3
		c4.4,0,7.8-3.6,7.8-8v-1v-41v-0.5L63.2,46l-2.1-1.2"/>
	<path class="st0" d="M51.9,1.2c-8.3,0-13.7,8.3-13.7,15.1c-0.1,12.5,25,27.9,25,27.9s25.1-15.4,25-27.9c0-6.8-5.4-15.1-13.7-15.1
		c-3.8,0-8.6,2.5-11.3,4.8C60.6,3.7,55.8,1.2,51.9,1.2L51.9,1.2z"/>
</g>
</svg>
